<svg id="EMpower_Logo_Color_RGB" xmlns="http://www.w3.org/2000/svg" width="220" height="63" viewBox="0 0 220 63">
  <path id="Fill_1" data-name="Fill 1" d="M12.146,52.5H0V0H52.017V52.5H43.294L9.044,42.543c-.237-.071-.449-.128-.619-.174-.143-.038-.266-.072-.361-.1H8.016a.163.163,0,0,0-.123.055.172.172,0,0,0-.038.139A21.726,21.726,0,0,0,12.145,52.5ZM16.37,26.6c-.389,1.626-2.083,10.013,2.731,15.51l26.635,7.746ZM29.72,14.864c-1.411,2.072-5.769,9.358-2.6,16.139L48.5,47.933ZM46.941,8.312C44.624,9.778,37.153,15.2,38.3,23.45L50.33,44.641,48.869,22.449c-.663-4.821-1.252-9.164-1.6-11.76C47.11,9.555,47,8.735,46.941,8.312Z" fill="#1a4d81"/>
  <path id="Fill_2" data-name="Fill 2" d="M0,26.25V0H13.988l-.658,4.318H4.608v6.065H11.89V14.7H4.65v6.989h9.667V26.25H0" transform="translate(70.629 26.25)" fill="#1a4d81"/>
  <path id="Fill_3" data-name="Fill 3" d="M20.771,26.25l-.9-15.187c-.123-1.747-.2-5.437-.2-5.532-.041.146-.814,3.639-1.222,5.385L14.5,26.25h-3.95L6.843,11.161c-.408-1.505-1.1-5.337-1.183-5.871,0,.095-.081,4.026-.2,5.871l-.9,15.089H0L2.321,0H8.268l3.381,13.975c.408,1.794.978,5.385,1.018,5.579.042-.194.652-3.931,1.06-5.626L17.105,0h5.988l2.2,26.25H20.771" transform="translate(87.809 26.25)" fill="#1a4d81"/>
  <path id="Fill_4" data-name="Fill 4" d="M.417,35.318V6.932A31.853,31.853,0,0,0,0,.866L4.211,0a12.209,12.209,0,0,1,.332,2.982A6.824,6.824,0,0,1,10.171.1,6.654,6.654,0,0,1,13.21.809a7.194,7.194,0,0,1,2.538,2.2A11.335,11.335,0,0,1,17.488,6.8a21.211,21.211,0,0,1,.646,5.476,24.961,24.961,0,0,1-.553,5.47,13.485,13.485,0,0,1-1.62,4.153,7.678,7.678,0,0,1-2.628,2.638,7.006,7.006,0,0,1-3.578.923,7.453,7.453,0,0,1-5-1.974.12.12,0,0,1,0,.023c.024.348.081,1.278.081,2.383v8.134l-4.417,1.3ZM9.3,4.475a5.634,5.634,0,0,0-4.463,2.5V19.105a5.594,5.594,0,0,0,3.919,2.162,3.552,3.552,0,0,0,3.388-2.044c.723-1.369,1.074-3.455,1.074-6.375a16.588,16.588,0,0,0-.834-6.226A3.138,3.138,0,0,0,9.3,4.475Z" transform="translate(118.351 27.682)" fill="#1a4d81"/>
  <path id="Fill_5" data-name="Fill 5" d="M9.047,25.3a7.84,7.84,0,0,1-6.608-3.418C.843,19.646,0,16.463,0,12.671,0,4.974,3.519,0,8.965,0a8.272,8.272,0,0,1,3.9.915A8.168,8.168,0,0,1,15.74,3.5c1.566,2.233,2.394,5.42,2.394,9.217s-.85,6.983-2.459,9.2A7.9,7.9,0,0,1,9.047,25.3ZM9.007,3.956A3.2,3.2,0,0,0,5.913,5.951a15.462,15.462,0,0,0-.963,6.387c0,3.386.355,5.726,1.085,7.153a3.183,3.183,0,0,0,3.093,1.9,3.217,3.217,0,0,0,3.037-2.019,15.206,15.206,0,0,0,1.06-6.557c0-3.272-.372-5.556-1.136-6.983A3.258,3.258,0,0,0,9.007,3.956Z" transform="translate(138.872 27.682)" fill="#1a4d81"/>
  <path id="Fill_6" data-name="Fill 6" d="M21.84,25.3h-4.2L15.107,13.873c-.653-2.942-1.348-6.765-1.348-6.765h-.082s-.328,2.451-1.348,7.008L9.839,25.3h-4.2L0,.738,4.45,0,6.7,12.009c.573,3.089,1.061,6.522,1.061,6.522h.122s.41-3.237,1.185-6.669L11.717.395h4.409L18.454,11.57c.857,4.02,1.306,7.056,1.306,7.056h.122s.49-3.772,1.02-6.665L23.026.395h4.653L21.84,25.3" transform="translate(158.438 27.682)" fill="#1a4d81"/>
  <path id="Fill_7" data-name="Fill 7" d="M9.464,25.3a8.319,8.319,0,0,1-6.91-3.418C.883,19.645,0,16.461,0,12.671,0,8.451.765,5.63,2.559,3.238A7.341,7.341,0,0,1,8.855,0,7.3,7.3,0,0,1,14.5,2.478,8.617,8.617,0,0,1,16.51,6.325a26.385,26.385,0,0,1,.67,6.634v1.093H4.914v.384a9.334,9.334,0,0,0,1.031,4.678,4.378,4.378,0,0,0,4.046,2.179,7.008,7.008,0,0,0,5.118-2.381L16.855,22.1a11.239,11.239,0,0,1-3.468,2.4A9.876,9.876,0,0,1,9.464,25.3ZM8.855,3.956c-2.477,0-3.9,2.275-3.9,6.24H12.55A9.049,9.049,0,0,0,11.54,5.61,3.071,3.071,0,0,0,8.855,3.956Z" transform="translate(188.026 27.682)" fill="#1a4d81"/>
  <path id="Fill_8" data-name="Fill 8" d="M10.1,5.351A2.807,2.807,0,0,0,8.867,5.01c-1.828,0-3.38,1.652-3.777,3.648V25.3H.715V7.93A23.717,23.717,0,0,0,0,1.311L4.017.047a10.318,10.318,0,0,1,.755,3.894C6.363,1.263,7.953,0,9.9,0a2.78,2.78,0,0,1,1.552.388L10.1,5.351" transform="translate(208.547 27.682)" fill="#1a4d81"/>
</svg>
